<svg xmlns="http://www.w3.org/2000/svg" xmlns:xlink="http://www.w3.org/1999/xlink" width="500" zoomAndPan="magnify" viewBox="0 0 375 374.999991" height="500" preserveAspectRatio="xMidYMid meet" version="1.0"><defs><clipPath id="2719691bc8"><path d="M 37.5 81 L 336 81 L 336 301.5 L 37.5 301.5 Z M 37.5 81 " clip-rule="nonzero"/></clipPath></defs><g clip-path="url(#2719691bc8)"><path fill="#798b41" d="M 306.714844 204.921875 C 305.753906 204.785156 305.753906 204.921875 306.574219 205.332031 C 307.949219 206.019531 309.320312 206.707031 310.828125 207.527344 C 317.6875 211.371094 324 217.132812 327.152344 224.539062 C 329.898438 231.125 323.859375 230.300781 320.292969 228.519531 C 317.414062 227.144531 314.394531 225.773438 311.515625 224.402344 C 293.679688 216.308594 275.296875 210 256.230469 205.746094 C 255.953125 205.746094 255.679688 205.746094 255.542969 206.019531 C 248.273438 217.269531 239.492188 227.144531 228.519531 234.554688 C 226.046875 236.199219 224.402344 237.433594 222.34375 239.765625 C 210.136719 253.621094 198.0625 267.617188 185.855469 281.472656 C 185.578125 281.882812 185.167969 282.15625 184.894531 282.570312 C 184.757812 282.707031 184.757812 282.84375 184.894531 282.980469 C 184.894531 282.980469 184.894531 282.980469 185.03125 282.980469 C 191.203125 286.273438 197.238281 291.347656 196.964844 299.03125 C 196.964844 299.578125 196.417969 300.128906 195.867188 300.128906 C 195.59375 300.128906 195.457031 299.992188 195.183594 299.855469 C 192.300781 297.382812 190.65625 295.738281 186.8125 294.777344 C 182.699219 293.679688 178.445312 292.855469 174.191406 292.445312 C 165.6875 291.484375 159.789062 295.875 153.476562 300.675781 C 152.792969 301.226562 151.285156 301.5 150.460938 301.226562 C 147.714844 300.402344 150.597656 296.835938 149.089844 295.464844 C 146.757812 293.542969 144.5625 292.582031 141.542969 291.898438 C 138.113281 291.074219 134.546875 290.523438 131.117188 290.113281 C 122.476562 289.152344 116.4375 293.269531 109.714844 298.070312 C 108.617188 298.894531 106.011719 299.578125 105.738281 297.523438 C 105.601562 296.835938 105.738281 295.738281 106.011719 294.367188 C 107.382812 288.332031 110.953125 284.351562 116.851562 282.292969 C 122.886719 280.097656 128.511719 278.589844 133.722656 277.628906 C 134.136719 277.492188 134.683594 277.21875 135.09375 276.808594 C 143.191406 267.617188 151.144531 258.5625 159.238281 249.371094 C 159.378906 249.234375 159.378906 249.09375 159.101562 249.09375 C 118.496094 240.179688 85.710938 207.253906 84.75 164.316406 C 84.75 162.121094 84.75 157.183594 84.75 149.636719 C 84.75 136.054688 77.066406 126.316406 63.347656 123.984375 C 56.078125 122.75 48.808594 121.652344 41.535156 120.417969 C 40.300781 120.28125 38.65625 119.867188 37.832031 118.769531 C 37.558594 118.496094 37.695312 117.949219 37.832031 117.671875 C 38.929688 116.300781 42.085938 115.753906 43.59375 115.476562 C 52.648438 113.695312 61.839844 112.1875 70.894531 110.675781 C 71.167969 110.675781 71.304688 110.402344 71.441406 110.265625 C 84.199219 82.144531 117.949219 73.5 143.601562 88.589844 C 155.949219 95.859375 164.589844 106.285156 170.488281 119.320312 C 170.488281 119.457031 170.625 119.59375 170.761719 119.59375 C 173.78125 119.867188 176.664062 120.417969 179.679688 121.238281 C 203.277344 127.414062 224.402344 140.855469 242.375 156.90625 C 250.332031 164.042969 257.050781 172.136719 262.675781 181.050781 C 262.8125 181.328125 263.089844 181.601562 263.5 181.601562 C 283.667969 186.8125 304.242188 190.792969 325.09375 193.671875 C 327.289062 193.949219 337.441406 196.140625 335.796875 200.121094 C 334.425781 203.414062 326.605469 204.785156 323.585938 205.058594 C 317.6875 205.746094 312.0625 205.746094 306.714844 204.921875 Z M 92.429688 120.144531 C 96.820312 120.964844 100.9375 117.949219 101.761719 113.558594 C 102.582031 109.167969 99.703125 104.914062 95.3125 104.09375 C 90.921875 103.269531 86.808594 106.285156 85.984375 110.675781 C 85.296875 115.203125 88.179688 119.320312 92.429688 120.144531 Z M 205.746094 245.390625 C 195.867188 249.371094 185.578125 251.152344 175.015625 250.878906 C 173.09375 250.878906 171.3125 250.742188 169.390625 250.742188 C 169.253906 250.742188 169.117188 250.742188 168.980469 250.878906 L 142.503906 280.648438 C 142.367188 280.785156 142.367188 280.921875 142.503906 281.058594 C 146.480469 283.253906 149.773438 286.273438 152.242188 290.113281 C 152.242188 290.25 152.378906 290.25 152.519531 290.113281 C 154.574219 287.234375 157.730469 285.585938 161.023438 284.351562 C 165.960938 282.570312 170.902344 281.195312 175.976562 279.960938 C 176.113281 279.960938 176.386719 279.824219 176.523438 279.6875 L 206.019531 245.527344 C 206.019531 245.527344 206.019531 245.390625 206.019531 245.390625 C 206.019531 245.390625 205.882812 245.390625 205.746094 245.390625 Z M 205.746094 245.390625 " fill-opacity="1" fill-rule="nonzero"/></g></svg>