<svg xmlns="http://www.w3.org/2000/svg" xmlns:xlink="http://www.w3.org/1999/xlink" width="500" zoomAndPan="magnify" viewBox="0 0 375 374.999991" height="500" preserveAspectRatio="xMidYMid meet" version="1.0"><path fill="#798b41" d="M 100.097656 69.457031 C 133.246094 94.449219 168.773438 144.933594 182.035156 172.304688 C 195.464844 144.933594 230.992188 94.449219 264.140625 69.457031 C 288.28125 51.269531 327.207031 37.5 327.207031 82.207031 C 327.207031 91.046875 322.109375 157.003906 319.046875 167.714844 C 308.679688 204.773438 270.941406 214.292969 237.28125 208.511719 C 296.101562 218.542969 311.058594 251.859375 278.761719 285.179688 C 217.394531 348.246094 190.703125 269.199219 183.734375 248.96875 C 182.882812 246.589844 182.375 245.0625 182.035156 244.550781 C 181.863281 245.0625 181.355469 246.589844 180.503906 248.96875 C 173.535156 269.199219 146.675781 348.246094 85.480469 285.179688 C 53.179688 251.859375 68.140625 218.542969 126.957031 208.511719 C 93.296875 214.292969 55.558594 204.773438 45.019531 167.714844 C 42.132812 157.003906 37.03125 91.046875 37.03125 82.207031 C 37.03125 37.5 75.960938 51.269531 100.097656 69.457031 Z M 100.097656 69.457031 " fill-opacity="1" fill-rule="evenodd"/></svg>