<svg xmlns="http://www.w3.org/2000/svg" xmlns:xlink="http://www.w3.org/1999/xlink" width="500" zoomAndPan="magnify" viewBox="0 0 375 374.999991" height="500" preserveAspectRatio="xMidYMid meet" version="1.0"><defs><clipPath id="7500c478f7"><path d="M 60 43 L 315 43 L 315 337.5 L 60 337.5 Z M 60 43 " clip-rule="nonzero"/></clipPath></defs><g clip-path="url(#7500c478f7)"><path fill="#798b41" d="M 313.570312 140.261719 C 320.445312 108.957031 278.933594 94.945312 278.933594 94.945312 C 278.933594 94.945312 274.460938 51.578125 241.46875 49.589844 C 194.820312 46.785156 190.894531 129.800781 188.875 156.949219 C 190.175781 130.695312 196.257812 52.851562 157.550781 44.351562 C 126.246094 37.472656 112.710938 79.59375 112.710938 79.59375 C 112.710938 79.59375 68.867188 83.460938 66.882812 116.449219 C 64.074219 163.101562 145.027344 167.5 172.171875 169.519531 C 145.914062 168.21875 69.886719 164.332031 61.386719 203.042969 C 54.511719 234.34375 96.019531 248.484375 96.019531 248.484375 C 96.019531 248.484375 94.382812 286.527344 127.375 288.511719 C 141.839844 289.382812 155.128906 282.585938 162.289062 270.425781 C 173.515625 251.347656 174.039062 233.890625 177.066406 217.738281 C 178.476562 210.226562 178.273438 208.78125 179.339844 203.351562 C 179.441406 202.226562 179.910156 201.386719 180.59375 200.78125 C 180.617188 257.714844 166.617188 293.769531 136.347656 327.015625 C 136.140625 327.242188 136.164062 327.597656 136.398438 327.792969 C 140.167969 330.894531 143.917969 334.03125 147.660156 337.191406 C 148.035156 337.507812 148.605469 337.449219 148.917969 337.070312 C 177.347656 301.855469 188.886719 260.109375 188.507812 201.15625 C 189.378906 201.902344 189.945312 202.902344 189.941406 204.105469 C 189.625 223.179688 191.796875 242.875 196.066406 263.097656 C 199.40625 276.082031 205.757812 287.40625 219.449219 290.414062 C 250.753906 297.289062 263.578125 261.167969 263.578125 261.167969 C 263.578125 261.167969 307.679688 257.296875 309.664062 224.304688 C 312.46875 177.65625 229.578125 172.394531 202.429688 170.378906 C 228.6875 171.675781 305.066406 178.96875 313.570312 140.261719 " fill-opacity="1" fill-rule="nonzero"/></g></svg>