<svg xmlns="http://www.w3.org/2000/svg" xmlns:xlink="http://www.w3.org/1999/xlink" width="500" zoomAndPan="magnify" viewBox="0 0 375 374.999991" height="500" preserveAspectRatio="xMidYMid meet" version="1.0"><path fill="#798b41" d="M 203.652344 283.824219 C 194.519531 252.816406 183.125 190.265625 183.125 190.265625 C 183.125 190.265625 232.453125 230.363281 255.242188 253.296875 C 264.132812 262.285156 270.289062 273.777344 272.210938 286.277344 C 277.355469 319.496094 251.007812 335.074219 224.375 314.546875 C 214.328125 306.851562 207.257812 295.941406 203.652344 283.824219 Z M 203.652344 283.824219 " fill-opacity="1" fill-rule="nonzero"/><path fill="#798b41" d="M 137.789062 270.027344 C 153.222656 241.660156 189.421875 189.351562 189.421875 189.351562 C 189.421875 189.351562 195.960938 252.621094 195.816406 284.929688 C 195.769531 297.574219 191.972656 310.027344 184.519531 320.21875 C 164.664062 347.335938 135.046875 339.738281 130.722656 306.371094 C 129.085938 293.824219 131.777344 281.085938 137.789062 269.976562 Z M 137.789062 270.027344 " fill-opacity="1" fill-rule="nonzero"/><path fill="#798b41" d="M 100.960938 213.726562 C 131.972656 204.59375 194.519531 193.199219 194.519531 193.199219 C 194.519531 193.199219 154.421875 242.527344 131.492188 265.316406 C 122.5 274.210938 111.007812 280.363281 98.507812 282.285156 C 65.289062 287.429688 49.710938 261.085938 70.242188 234.449219 C 77.933594 224.402344 88.847656 217.335938 100.960938 213.726562 Z M 100.960938 213.726562 " fill-opacity="1" fill-rule="nonzero"/><path fill="#798b41" d="M 114.757812 147.863281 C 143.125 163.296875 195.433594 199.496094 195.433594 199.496094 C 195.433594 199.496094 132.164062 206.035156 99.855469 205.890625 C 87.210938 205.84375 74.757812 202.046875 64.566406 194.59375 C 37.453125 174.738281 45.046875 145.121094 78.414062 140.796875 C 90.960938 139.160156 103.703125 141.851562 114.808594 147.863281 Z M 114.757812 147.863281 " fill-opacity="1" fill-rule="nonzero"/><path fill="#798b41" d="M 171.058594 111.035156 C 180.191406 142.046875 191.585938 204.59375 191.585938 204.59375 C 191.585938 204.59375 142.257812 164.496094 119.472656 141.566406 C 110.578125 132.574219 104.421875 121.085938 102.5 108.585938 C 97.402344 75.316406 123.703125 59.785156 150.382812 80.265625 C 160.433594 87.960938 167.5 98.871094 171.105469 110.988281 Z M 171.058594 111.035156 " fill-opacity="1" fill-rule="nonzero"/><path fill="#798b41" d="M 236.921875 124.835938 C 221.492188 153.199219 185.289062 205.507812 185.289062 205.507812 C 185.289062 205.507812 178.75 142.238281 178.894531 109.929688 C 178.941406 97.285156 182.742188 84.835938 190.191406 74.640625 C 210.046875 47.527344 239.664062 55.121094 243.992188 88.488281 C 245.625 101.035156 242.933594 113.777344 236.921875 124.882812 Z M 236.921875 124.835938 " fill-opacity="1" fill-rule="nonzero"/><path fill="#798b41" d="M 273.75 181.132812 C 242.742188 190.265625 180.191406 201.660156 180.191406 201.660156 C 180.191406 201.660156 220.289062 152.335938 243.222656 129.546875 C 252.210938 120.652344 263.703125 114.496094 276.203125 112.574219 C 309.421875 107.429688 325 133.777344 304.472656 160.410156 C 296.777344 170.460938 285.867188 177.527344 273.75 181.132812 Z M 273.75 181.132812 " fill-opacity="1" fill-rule="nonzero"/><path fill="#798b41" d="M 259.953125 246.996094 C 231.585938 231.566406 179.277344 195.363281 179.277344 195.363281 C 179.277344 195.363281 242.546875 188.824219 274.855469 188.96875 C 287.5 189.015625 299.953125 192.816406 310.144531 200.265625 C 337.257812 220.121094 329.664062 249.738281 296.296875 254.066406 C 283.75 255.699219 271.007812 253.007812 259.902344 246.996094 Z M 259.953125 246.996094 " fill-opacity="1" fill-rule="nonzero"/><path fill="#798b41" d="M 214.230469 197.429688 C 214.230469 198.3125 214.1875 199.1875 214.101562 200.066406 C 214.015625 200.941406 213.886719 201.808594 213.714844 202.671875 C 213.542969 203.535156 213.328125 204.390625 213.074219 205.230469 C 212.816406 206.074219 212.523438 206.902344 212.183594 207.714844 C 211.847656 208.527344 211.472656 209.324219 211.058594 210.097656 C 210.640625 210.875 210.191406 211.628906 209.703125 212.359375 C 209.210938 213.09375 208.6875 213.800781 208.128906 214.480469 C 207.570312 215.160156 206.980469 215.8125 206.359375 216.433594 C 205.738281 217.054688 205.085938 217.648438 204.40625 218.203125 C 203.726562 218.761719 203.019531 219.285156 202.285156 219.777344 C 201.554688 220.265625 200.800781 220.71875 200.023438 221.132812 C 199.25 221.546875 198.453125 221.921875 197.640625 222.257812 C 196.828125 222.597656 196 222.894531 195.15625 223.148438 C 194.316406 223.402344 193.460938 223.617188 192.597656 223.789062 C 191.734375 223.960938 190.867188 224.089844 189.988281 224.175781 C 189.113281 224.261719 188.234375 224.304688 187.355469 224.304688 C 186.476562 224.304688 185.597656 224.261719 184.722656 224.175781 C 183.84375 224.089844 182.976562 223.960938 182.113281 223.789062 C 181.25 223.617188 180.398438 223.402344 179.554688 223.148438 C 178.710938 222.894531 177.882812 222.597656 177.070312 222.257812 C 176.257812 221.921875 175.464844 221.546875 174.6875 221.132812 C 173.910156 220.71875 173.15625 220.265625 172.425781 219.777344 C 171.691406 219.285156 170.988281 218.761719 170.304688 218.203125 C 169.625 217.648438 168.976562 217.054688 168.351562 216.433594 C 167.730469 215.8125 167.140625 215.160156 166.582031 214.480469 C 166.023438 213.800781 165.5 213.09375 165.011719 212.359375 C 164.519531 211.628906 164.070312 210.875 163.652344 210.097656 C 163.238281 209.324219 162.863281 208.527344 162.527344 207.714844 C 162.191406 206.902344 161.894531 206.074219 161.636719 205.230469 C 161.382812 204.390625 161.167969 203.535156 160.996094 202.671875 C 160.824219 201.808594 160.695312 200.941406 160.609375 200.066406 C 160.523438 199.1875 160.480469 198.3125 160.480469 197.429688 C 160.480469 196.550781 160.523438 195.671875 160.609375 194.796875 C 160.695312 193.921875 160.824219 193.050781 160.996094 192.1875 C 161.167969 191.324219 161.382812 190.472656 161.636719 189.628906 C 161.894531 188.785156 162.191406 187.957031 162.527344 187.144531 C 162.863281 186.332031 163.238281 185.539062 163.652344 184.761719 C 164.070312 183.984375 164.519531 183.230469 165.011719 182.5 C 165.5 181.765625 166.023438 181.0625 166.582031 180.382812 C 167.140625 179.699219 167.730469 179.050781 168.351562 178.425781 C 168.976562 177.804688 169.625 177.214844 170.304688 176.65625 C 170.988281 176.097656 171.691406 175.574219 172.425781 175.085938 C 173.15625 174.59375 173.910156 174.144531 174.6875 173.730469 C 175.464844 173.3125 176.257812 172.9375 177.070312 172.601562 C 177.882812 172.265625 178.710938 171.96875 179.554688 171.710938 C 180.398438 171.457031 181.25 171.242188 182.113281 171.070312 C 182.976562 170.898438 183.84375 170.769531 184.722656 170.683594 C 185.597656 170.597656 186.476562 170.554688 187.355469 170.554688 C 188.234375 170.554688 189.113281 170.597656 189.988281 170.683594 C 190.867188 170.769531 191.734375 170.898438 192.597656 171.070312 C 193.460938 171.242188 194.316406 171.457031 195.15625 171.710938 C 196 171.96875 196.828125 172.265625 197.640625 172.601562 C 198.453125 172.9375 199.25 173.3125 200.023438 173.730469 C 200.800781 174.144531 201.554688 174.59375 202.285156 175.085938 C 203.019531 175.574219 203.726562 176.097656 204.40625 176.65625 C 205.085938 177.214844 205.738281 177.804688 206.359375 178.425781 C 206.980469 179.050781 207.570312 179.699219 208.128906 180.382812 C 208.6875 181.0625 209.210938 181.765625 209.703125 182.5 C 210.191406 183.230469 210.640625 183.984375 211.058594 184.761719 C 211.472656 185.539062 211.847656 186.332031 212.183594 187.144531 C 212.523438 187.957031 212.816406 188.785156 213.074219 189.628906 C 213.328125 190.472656 213.542969 191.324219 213.714844 192.1875 C 213.886719 193.050781 214.015625 193.921875 214.101562 194.796875 C 214.1875 195.671875 214.230469 196.550781 214.230469 197.429688 Z M 214.230469 197.429688 " fill-opacity="1" fill-rule="nonzero"/></svg>