<svg xmlns="http://www.w3.org/2000/svg" xmlns:xlink="http://www.w3.org/1999/xlink" width="500" zoomAndPan="magnify" viewBox="0 0 375 374.999991" height="500" preserveAspectRatio="xMidYMid meet" version="1.0"><defs><clipPath id="cd793abc96"><path d="M 51 71 L 324 71 L 324 308.722656 L 51 308.722656 Z M 51 71 " clip-rule="nonzero"/></clipPath></defs><g clip-path="url(#cd793abc96)"><path fill="#798b41" d="M 187.394531 308.46875 C 185.574219 308.457031 184.390625 307.429688 184.121094 307.183594 L 78.90625 201.96875 C 53.863281 179.304688 45.25 144.765625 56.921875 116.085938 C 70.523438 82.667969 104.859375 73.945312 107.171875 73.40625 C 136.675781 66.519531 168.207031 79.347656 187.429688 105.519531 C 206.648438 79.347656 238.183594 66.523438 267.683594 73.40625 C 269.167969 73.753906 304.175781 82.273438 317.933594 116.085938 C 329.695312 144.988281 320.859375 179.488281 295.949219 201.96875 L 190.734375 307.183594 C 190.472656 307.425781 189.257812 308.480469 187.394531 308.46875 Z M 187.394531 308.46875 " fill-opacity="1" fill-rule="nonzero"/></g></svg>