<svg xmlns="http://www.w3.org/2000/svg" xmlns:xlink="http://www.w3.org/1999/xlink" width="500" zoomAndPan="magnify" viewBox="0 0 375 374.999991" height="500" preserveAspectRatio="xMidYMid meet" version="1.0"><defs><clipPath id="a3d2e1fe6d"><path d="M 86.0625 37.5 L 289 37.5 L 289 337.5 L 86.0625 337.5 Z M 86.0625 37.5 " clip-rule="nonzero"/></clipPath></defs><g clip-path="url(#a3d2e1fe6d)"><path fill="#798b41" d="M 281.109375 81.054688 C 262.128906 72.203125 249.402344 63.539062 239.171875 56.582031 C 222.898438 45.507812 211.140625 37.5 187.457031 37.5 C 187.457031 37.5 187.453125 37.5 187.449219 37.5 C 166.15625 37.5 156.226562 44.617188 142.488281 54.46875 C 131.542969 62.316406 117.921875 72.089844 93.867188 81.011719 C 89.101562 82.785156 86.140625 87.171875 86.144531 92.460938 C 86.152344 98.273438 89.574219 103.285156 94.871094 105.238281 C 112.734375 111.820312 140.308594 119.578125 174.09375 121.265625 C 173.535156 148.09375 167.957031 168.90625 164.257812 182.707031 C 161.371094 193.484375 159.921875 198.890625 162.46875 200.703125 C 165.109375 202.582031 168.304688 204.023438 171.816406 205.066406 C 171.054688 256.980469 164.753906 278.289062 160.976562 291.0625 C 158.308594 300.089844 156.699219 305.539062 158.742188 314.6875 C 162.117188 329.773438 175.15625 336.996094 186.574219 337.460938 C 186.964844 337.476562 187.355469 337.484375 187.753906 337.484375 C 197.371094 337.484375 208.6875 332.722656 212.886719 319.210938 C 216.746094 306.792969 215.320312 301.671875 212.472656 291.480469 C 209 279.042969 203.195312 258.265625 202.511719 205.410156 C 206.289062 204.449219 209.636719 203.113281 212.230469 201.453125 C 214.480469 200.019531 213.070312 194.9375 210.257812 184.816406 C 206.425781 171.015625 200.023438 147.964844 200.441406 121.285156 C 234.421875 119.652344 262.132812 111.855469 280.046875 105.246094 C 285.113281 103.375 288.398438 98.851562 288.625 93.441406 C 288.847656 88.0625 285.96875 83.316406 281.109375 81.054688 " fill-opacity="1" fill-rule="nonzero"/></g></svg>