<svg xmlns="http://www.w3.org/2000/svg" xmlns:xlink="http://www.w3.org/1999/xlink" width="500" viewBox="0 0 375 374.999991" height="500" preserveAspectRatio="xMidYMid meet"><defs><clipPath id="9ff93bfde6"><path d="M 18.128906 122 L 313 122 L 313 256 L 18.128906 256 Z M 18.128906 122 " clip-rule="nonzero"></path></clipPath></defs><g clip-path="url(#9ff93bfde6)"><path fill="#d8b77f" d="M 310.394531 234.636719 C 304.796875 233.160156 282.375 233.289062 276.753906 231.882812 C 271.457031 230.457031 266.390625 228.3125 261.394531 226.082031 C 251.386719 221.085938 237.527344 216.664062 231.542969 206.707031 C 229.714844 203.015625 228.875 198.949219 227.703125 195.019531 C 225.480469 186.691406 221.113281 179.058594 215.40625 172.617188 C 206.28125 162.128906 193.667969 154.164062 179.710938 152.421875 C 171.863281 151.535156 163.867188 151.886719 156.125 153.472656 C 146.429688 155.238281 137.164062 158.917969 127.394531 160.269531 C 115.335938 162.300781 111.171875 149.0625 105.570312 141.210938 C 92.867188 123.648438 76.652344 118.605469 55.898438 124.328125 C 54.351562 124.285156 53.796875 125.59375 53.714844 125.820312 C 53.222656 127.121094 51.558594 127.617188 50.398438 128.386719 C 46.949219 130.46875 42.921875 131.34375 39.203125 132.835938 C 36.609375 133.738281 34.652344 136.535156 35.398438 139.300781 C 35.730469 140.53125 36.289062 141.644531 36.707031 142.855469 C 35.027344 143.839844 26.433594 146.347656 22.238281 150.316406 C 22.027344 150.515625 22.316406 150.835938 22.539062 150.648438 C 26.476562 147.292969 33.894531 146.039062 35.207031 144.929688 C 35.902344 145.691406 35.746094 146.492188 34.824219 146.847656 C 33.554688 147.339844 20.460938 154.640625 18.28125 158.0625 C 18.1875 158.210938 20.691406 156.335938 20.808594 156.199219 C 23.25 153.246094 33.949219 148.664062 35.148438 147.433594 C 35.839844 148.277344 35.6875 149.261719 35.945312 150.25 C 36.019531 150.632812 35.875 150.898438 35.59375 151.148438 C 33.894531 152.648438 20.917969 158.066406 18.328125 163.351562 C 18.128906 163.746094 18.714844 164.058594 18.933594 163.671875 C 22.160156 157.996094 33.78125 154.910156 35.960938 151.976562 C 36.847656 152.28125 35.851562 153.28125 35.660156 153.777344 C 33.308594 157.277344 21.222656 167.609375 21.222656 168.644531 C 21.886719 169.125 35.746094 155.445312 36.878906 153.976562 C 38.398438 155.203125 37.035156 156.589844 36.636719 157.976562 C 34.359375 165.855469 31.1875 171.332031 31.160156 173.921875 C 31.160156 174.070312 31.371094 174.09375 31.398438 173.949219 C 32.441406 168.941406 36.835938 160.304688 38.378906 156.320312 C 39.34375 156.890625 39.363281 156.988281 39.042969 157.894531 C 37.289062 162.34375 36.867188 170.992188 36.527344 176.488281 C 36.519531 176.570312 36.648438 176.585938 36.660156 176.5 L 37.128906 173.332031 C 37.554688 169.859375 38.0625 166.472656 38.578125 163.019531 C 38.875 161.359375 39.074219 159.5625 40.136719 158.175781 C 41.242188 159.199219 42.363281 159.90625 43.550781 160.433594 C 43.339844 164.476562 44.757812 168.1875 44.917969 172.230469 C 45.640625 172.003906 44.710938 164.265625 44.519531 161.0625 C 45.472656 161.753906 46.324219 162.117188 47.132812 162.34375 C 47.335938 164.6875 50.410156 181.316406 50.640625 181.246094 C 50.308594 175.5625 48.53125 168.535156 48.371094 162.847656 C 48.789062 163.058594 49.222656 163.25 49.652344 163.421875 L 51.78125 169.46875 L 50.4375 163.71875 C 51.878906 164.246094 53.367188 164.636719 54.84375 165.089844 L 55.769531 170.566406 C 55.882812 171.296875 56.101562 172.003906 56.421875 172.675781 L 56.445312 172.71875 L 55.421875 165.273438 C 56.507812 165.582031 57.257812 166.089844 57.714844 167.164062 C 60.671875 174.261719 65.265625 180.460938 69.421875 186.871094 C 75.066406 195.796875 77.25 206.40625 81.726562 215.921875 C 82.78125 218.480469 83.871094 221.027344 84.964844 223.570312 C 86.648438 227.488281 88.933594 231.050781 87.5 235.441406 C 82.011719 236.246094 76.398438 237.199219 71.515625 239.996094 C 65.585938 245.839844 82.519531 246.003906 85.476562 244.632812 C 87.714844 244.074219 89.988281 243.660156 92.242188 243.164062 C 98.597656 242.046875 102.859375 240.660156 105.667969 234.328125 C 107.117188 231.710938 107.90625 228.414062 110.566406 226.734375 C 112.527344 225.335938 114.597656 226.082031 116.339844 227.496094 C 119.257812 230.003906 122.363281 232.386719 124.425781 235.695312 C 128.15625 241.84375 123.222656 246.347656 118.894531 250.183594 C 117.804688 251.117188 117.457031 253.808594 119.042969 254.261719 C 119.789062 254.335938 120.574219 254.550781 121.1875 253.914062 C 123.066406 255.714844 125.585938 255.601562 126.886719 254.03125 C 127.609375 254.859375 128.378906 255.605469 129.609375 255.515625 C 130.75 255.433594 131.816406 255.230469 132.5625 254.238281 C 134.335938 256.390625 137.175781 255.058594 139.078125 253.804688 C 140.078125 253.171875 140.558594 252.210938 140.796875 251.0625 C 141.117188 249.507812 140.851562 247.972656 140.6875 246.457031 C 140.140625 241.582031 141.582031 236.835938 141.476562 231.984375 C 154.308594 232.519531 167.609375 233.835938 179.441406 239.0625 C 173.824219 240.019531 168.210938 240.191406 162.667969 241.574219 C 159.015625 242.070312 153.949219 245.625 160.328125 247.070312 C 169.1875 248.808594 197.667969 250.554688 202.398438 241.886719 C 206.660156 242.449219 212.203125 244.246094 215.050781 239.886719 C 215.746094 238.847656 216.371094 237.753906 216.980469 236.652344 C 219.710938 231.265625 226.535156 232.003906 231.007812 234.625 C 240.589844 240.617188 250.273438 242.21875 261.421875 242.085938 C 270.652344 242.207031 296.523438 240.410156 305.738281 239.835938 C 317.460938 239.125 310.394531 234.636719 310.394531 234.636719 Z M 78.875 139.828125 C 80.527344 140.710938 81.277344 142.4375 82.609375 143.652344 C 83.03125 144.035156 83.660156 144.082031 84.125 143.757812 C 86.367188 142.171875 88.054688 138.671875 87.152344 136.128906 C 86.515625 134.285156 84.339844 134.019531 82.660156 134.078125 C 81.398438 134.273438 80.347656 133.6875 79.199219 133.3125 C 79.207031 133.21875 79.207031 133.226562 79.210938 133.132812 C 81.34375 132.707031 84.097656 131.648438 85.960938 133.21875 C 91.136719 136.78125 88.539062 144.8125 82.9375 146.246094 C 82.503906 146.355469 82.046875 146.238281 81.707031 145.941406 C 80.605469 144.945312 78.730469 142.359375 76.816406 139.253906 C 77.691406 139.058594 78.304688 139.460938 78.875 139.828125 Z M 60.203125 133.726562 C 59.816406 133.726562 59.480469 133.726562 59.121094 133.726562 C 57.921875 132.253906 60.75 131.667969 60.203125 133.726562 Z M 39.019531 136.082031 C 40.578125 136.296875 41.847656 139.101562 39.660156 139.265625 C 38.636719 139.246094 37.257812 138.035156 37.15625 137.035156 C 37.171875 136.25 38.351562 135.941406 39.019531 136.082031 Z M 43.59375 157.597656 C 38.433594 154.417969 37.703125 151.953125 37.089844 148.277344 C 37.804688 148.144531 39.996094 149.925781 43.230469 149.925781 C 43.417969 150.691406 43.839844 156.898438 43.59375 157.597656 Z M 47.28125 159.746094 C 46.335938 159.214844 45.9375 158.722656 45.03125 158.144531 C 44.792969 157.976562 44.65625 157.824219 44.65625 157.542969 C 44.65625 155.164062 44.269531 152.582031 44.378906 150.203125 C 46.972656 150.464844 46.640625 153.101562 46.871094 155.019531 C 46.984375 156.601562 47.304688 158.15625 47.28125 159.746094 Z M 49.148438 160.242188 C 48.878906 160.214844 48.621094 160.183594 48.269531 160.144531 C 48.15625 156.90625 48.328125 153.65625 46.816406 150.664062 C 46.902344 150.621094 46.984375 150.582031 47.070312 150.539062 C 48.078125 151.964844 48.421875 153.707031 48.65625 155.398438 C 48.824219 157.015625 49.175781 158.625 49.148438 160.242188 Z M 50.488281 160.582031 C 49.933594 156.851562 49.734375 153.09375 48.101562 149.605469 C 51.421875 151.207031 54.15625 161.128906 54.15625 161.128906 C 52.929688 160.984375 51.699219 160.835938 50.488281 160.582031 Z M 90.085938 202.796875 C 89.773438 203.011719 89.605469 202.816406 89.40625 202.640625 C 80.183594 195.449219 72.867188 185.949219 68.363281 175.144531 C 65.8125 170.375 63.082031 162.195312 57.007812 161.519531 C 56.289062 161.394531 55.570312 161.300781 54.847656 161.210938 C 54.847656 161.210938 53.351562 152.488281 49.5625 148.585938 C 49.300781 148.292969 49.144531 147.890625 49 147.480469 C 54.222656 149.074219 56.550781 154.933594 57.988281 159.71875 C 58.132812 160.210938 58.324219 161.199219 58.761719 161.632812 C 58.921875 161.792969 59.199219 161.652344 59.164062 161.425781 C 58.386719 156.152344 55.402344 150.210938 51.765625 146.503906 C 54.957031 146.742188 57.488281 148.902344 59.644531 151.089844 C 59.90625 151.316406 60.066406 151.621094 60.441406 151.667969 C 59.574219 148.257812 55.925781 146.316406 52.847656 145.226562 C 52.878906 145.105469 52.871094 145.148438 52.902344 145.023438 C 57.65625 145.800781 62.277344 147.492188 66.851562 149.003906 C 72.402344 150.847656 76.96875 154.765625 80.664062 159.203125 C 81.414062 159.945312 79.914062 162.691406 79.796875 163.824219 C 75.972656 178.101562 91.226562 188.714844 90.085938 202.796875 Z M 90.085938 202.796875 " fill-opacity="1" fill-rule="nonzero"></path></g></svg>