<svg xmlns="http://www.w3.org/2000/svg" xmlns:xlink="http://www.w3.org/1999/xlink" width="500" zoomAndPan="magnify" viewBox="0 0 375 374.999991" height="500" preserveAspectRatio="xMidYMid meet" version="1.0"><defs><clipPath id="1721839193"><path d="M 58.417969 101 L 117 101 L 117 195 L 58.417969 195 Z M 58.417969 101 " clip-rule="nonzero"/></clipPath></defs><path fill="#798b41" d="M 166.3125 38.160156 C 183.015625 39.226562 190.433594 58.140625 191.765625 72.125 C 193.242188 87.679688 190.84375 102.570312 184.570312 116.804688 C 180.023438 127.117188 171.425781 139.910156 159.699219 142.691406 C 156.085938 143.546875 152.589844 143.292969 149.214844 141.9375 C 136.65625 136.882812 131.09375 119.710938 129.609375 107.636719 C 127.125 87.398438 131.414062 65.808594 144.152344 49.8125 C 149.257812 43.414062 157.859375 37.628906 166.3125 38.160156 Z M 166.3125 38.160156 " fill-opacity="1" fill-rule="nonzero"/><path fill="#798b41" d="M 216.933594 78.578125 C 223.699219 70.449219 234.804688 64.824219 245.28125 69.246094 C 255.003906 73.347656 260.296875 83.308594 262.046875 93.242188 C 264.523438 107.347656 262.101562 120.847656 256.941406 134.476562 C 251.972656 147.613281 238.75 169.558594 220.996094 164.003906 C 210.347656 160.671875 204.417969 146.09375 202.5 136.308594 C 198.492188 115.804688 203.433594 94.777344 216.933594 78.578125 Z M 216.933594 78.578125 " fill-opacity="1" fill-rule="nonzero"/><g clip-path="url(#1721839193)"><path fill="#798b41" d="M 58.417969 144.300781 L 58.417969 135.429688 C 58.90625 128.378906 60.535156 121.949219 63.296875 116.144531 C 70.148438 101.773438 85.523438 96.484375 98.394531 107.128906 C 107.527344 114.679688 112.875 125.371094 115.019531 136.949219 C 117.171875 148.542969 116.132812 160.132812 111.90625 171.710938 C 108.960938 179.777344 103.957031 188.476562 96.429688 192.277344 C 81.847656 199.640625 69.683594 183.136719 65.007812 171.898438 C 61.359375 163.121094 59.160156 153.921875 58.417969 144.300781 Z M 58.417969 144.300781 " fill-opacity="1" fill-rule="nonzero"/></g><path fill="#798b41" d="M 283.894531 228.953125 C 272.160156 232.5 263.660156 223.699219 259.496094 213.988281 C 251.230469 194.703125 253.253906 172.574219 264.710938 155.054688 C 270.957031 145.515625 283 135.164062 295.386719 137.957031 C 313.367188 142.003906 316.582031 165.417969 314.230469 180.242188 C 311.703125 196.214844 301.457031 223.648438 283.894531 228.953125 Z M 283.894531 228.953125 " fill-opacity="1" fill-rule="nonzero"/><path fill="#798b41" d="M 178.777344 166.515625 C 207.023438 171.714844 216.859375 195.597656 230.28125 217.15625 C 235.320312 225.25 241.582031 232.175781 249.066406 237.9375 C 252.988281 240.953125 254.953125 242.46875 254.964844 242.476562 C 263.570312 249.855469 269.367188 258.964844 272.351562 269.808594 C 277.699219 289.210938 267.511719 307.304688 247.636719 312.351562 C 232.265625 316.25 217.121094 310.230469 201.296875 304.226562 C 184.316406 297.785156 167.019531 296.898438 149.40625 301.5625 C 138.929688 304.335938 125.550781 309.878906 112.96875 311.277344 C 97.929688 312.945312 84.164062 308.164062 74.523438 296.445312 C 67.839844 288.316406 65.015625 278.796875 66.296875 268.304688 C 68.09375 253.539062 76.992188 239.628906 88.738281 230.785156 C 89.921875 229.894531 92.394531 228.367188 96.152344 226.207031 C 110.09375 218.183594 119.289062 206.945312 128.40625 193.945312 C 138.351562 179.777344 151.886719 166.976562 170.339844 166.269531 C 174.242188 166.121094 177.058594 166.203125 178.777344 166.515625 Z M 178.777344 166.515625 " fill-opacity="1" fill-rule="nonzero"/></svg>