<svg xmlns="http://www.w3.org/2000/svg" xmlns:xlink="http://www.w3.org/1999/xlink" width="500" zoomAndPan="magnify" viewBox="0 0 375 374.999991" height="500" preserveAspectRatio="xMidYMid meet" version="1.0"><defs><clipPath id="7b3eb41885"><path d="M 90.375 38 L 284 38 L 284 337.5 L 90.375 337.5 Z M 90.375 38 " clip-rule="nonzero"/></clipPath></defs><g clip-path="url(#7b3eb41885)"><path fill="#798b41" d="M 280.828125 178.417969 C 254.484375 163.933594 226.101562 151.128906 196.765625 155.320312 C 179.601562 157.773438 164.253906 165.46875 150.195312 175.195312 C 149.921875 175.050781 149.644531 174.917969 149.363281 174.800781 C 156.695312 157.90625 167.226562 142.046875 168.929688 123.8125 C 170.488281 107.140625 164.347656 90.671875 156.449219 75.90625 C 150.121094 64.085938 142.601562 52.886719 136.433594 41.007812 C 134.605469 37.488281 129.511719 37.640625 127.910156 41.269531 C 115.164062 70.117188 105.019531 101.628906 113.953125 131.4375 C 117.757812 144.128906 125.476562 153.785156 131.347656 165.351562 C 131.976562 166.59375 135.269531 172.484375 138.425781 177.90625 C 124.105469 191 112.808594 207.5 105.148438 225.28125 C 96.207031 246.03125 91.679688 268.171875 90.910156 290.742188 C 90.457031 304.144531 91.453125 317.472656 93.246094 330.75 C 93.515625 332.742188 95.601562 334.988281 97.242188 335.949219 C 99.105469 337.039062 101.855469 337.5 103.945312 336.824219 C 106.050781 336.144531 108.082031 334.839844 109.144531 332.828125 C 110.3125 330.621094 110.351562 328.605469 110.027344 326.164062 C 110.105469 326.742188 110.183594 327.316406 110.257812 327.894531 C 107.839844 309.648438 107.429688 291.128906 109.757812 272.851562 C 111.679688 259.472656 115.105469 246.351562 120.265625 233.851562 C 124 225.253906 128.519531 217 133.878906 209.304688 C 134.597656 208.273438 135.332031 207.253906 136.078125 206.242188 C 136.390625 205.820312 136.710938 205.398438 137.027344 204.980469 C 138.585938 203.023438 140.175781 201.097656 141.835938 199.226562 C 144.085938 196.691406 146.441406 194.257812 148.894531 191.921875 C 169.328125 203.078125 191.105469 212.578125 213.933594 210.386719 C 237.195312 208.15625 257.609375 194.035156 279.902344 187.28125 C 283.996094 186.042969 284.574219 180.476562 280.828125 178.417969 Z M 280.828125 178.417969 " fill-opacity="1" fill-rule="nonzero"/></g></svg>