<svg xmlns="http://www.w3.org/2000/svg" xmlns:xlink="http://www.w3.org/1999/xlink" width="500" zoomAndPan="magnify" viewBox="0 0 375 374.999991" height="500" preserveAspectRatio="xMidYMid meet" version="1.0"><defs><clipPath id="9a5193862a"><path d="M 98 252 L 171 252 L 171 336.75 L 98 336.75 Z M 98 252 " clip-rule="nonzero"/></clipPath></defs><path fill="#798b41" d="M 126.535156 93.492188 L 164.945312 103.589844 C 165.367188 103.675781 165.761719 103.832031 166.128906 104.054688 C 166.496094 104.277344 166.8125 104.554688 167.085938 104.886719 C 167.355469 105.222656 167.5625 105.589844 167.707031 105.996094 C 167.851562 106.398438 167.921875 106.816406 167.921875 107.246094 C 167.921875 107.675781 167.851562 108.09375 167.707031 108.496094 C 167.5625 108.902344 167.355469 109.269531 167.085938 109.601562 C 166.8125 109.9375 166.496094 110.214844 166.128906 110.4375 C 165.761719 110.660156 165.367188 110.816406 164.945312 110.902344 L 126.535156 121.019531 C 126.179688 121.089844 125.839844 121.214844 125.519531 121.386719 C 125.195312 121.5625 124.90625 121.777344 124.648438 122.035156 C 124.390625 122.292969 124.175781 122.582031 124.003906 122.90625 C 123.832031 123.226562 123.710938 123.566406 123.636719 123.921875 L 113.539062 172.832031 C 113.453125 173.25 113.296875 173.644531 113.074219 174.011719 C 112.851562 174.378906 112.574219 174.699219 112.238281 174.96875 C 111.90625 175.242188 111.539062 175.449219 111.132812 175.59375 C 110.730469 175.734375 110.3125 175.808594 109.882812 175.808594 C 109.453125 175.808594 109.035156 175.734375 108.632812 175.59375 C 108.226562 175.449219 107.859375 175.242188 107.523438 174.96875 C 107.191406 174.699219 106.914062 174.378906 106.691406 174.011719 C 106.46875 173.644531 106.3125 173.25 106.226562 172.832031 L 96.128906 123.921875 C 96.054688 123.566406 95.929688 123.226562 95.757812 122.90625 C 95.582031 122.585938 95.367188 122.292969 95.109375 122.035156 C 94.851562 121.777344 94.5625 121.5625 94.242188 121.390625 C 93.917969 121.214844 93.582031 121.09375 93.222656 121.019531 L 54.816406 110.878906 C 50.851562 110.0625 50.851562 104.390625 54.816406 103.566406 L 93.230469 93.46875 C 93.953125 93.320312 94.578125 92.984375 95.105469 92.464844 C 95.632812 91.945312 95.972656 91.324219 96.128906 90.597656 L 106.226562 41.691406 C 107.042969 37.722656 112.714844 37.722656 113.539062 41.691406 L 123.636719 90.597656 C 123.710938 90.957031 123.832031 91.292969 124.003906 91.613281 C 124.179688 91.933594 124.394531 92.222656 124.652344 92.480469 C 124.910156 92.738281 125.199219 92.953125 125.519531 93.125 C 125.839844 93.296875 126.179688 93.417969 126.535156 93.492188 Z M 126.535156 93.492188 " fill-opacity="1" fill-rule="nonzero"/><g clip-path="url(#9a5193862a)"><path fill="#798b41" d="M 145.0625 286.074219 L 168.800781 292.3125 C 169.058594 292.363281 169.304688 292.460938 169.53125 292.597656 C 169.757812 292.738281 169.953125 292.910156 170.121094 293.113281 C 170.289062 293.320312 170.417969 293.546875 170.507812 293.796875 C 170.597656 294.046875 170.640625 294.304688 170.640625 294.570312 C 170.640625 294.835938 170.597656 295.09375 170.507812 295.34375 C 170.417969 295.597656 170.289062 295.824219 170.121094 296.03125 C 169.953125 296.234375 169.757812 296.40625 169.53125 296.546875 C 169.304688 296.683594 169.058594 296.777344 168.800781 296.832031 L 145.0625 303.070312 C 144.613281 303.164062 144.222656 303.375 143.898438 303.699219 C 143.574219 304.023438 143.367188 304.410156 143.269531 304.859375 L 137.03125 335.082031 C 136.980469 335.34375 136.882812 335.585938 136.746094 335.8125 C 136.609375 336.039062 136.4375 336.238281 136.230469 336.40625 C 136.023438 336.574219 135.796875 336.703125 135.546875 336.789062 C 135.296875 336.878906 135.039062 336.925781 134.773438 336.925781 C 134.507812 336.925781 134.25 336.878906 134 336.789062 C 133.75 336.703125 133.519531 336.574219 133.3125 336.40625 C 133.109375 336.238281 132.9375 336.039062 132.796875 335.8125 C 132.660156 335.585938 132.566406 335.34375 132.511719 335.082031 L 126.273438 304.859375 C 126.179688 304.410156 125.972656 304.023438 125.648438 303.699219 C 125.320312 303.371094 124.933594 303.164062 124.484375 303.070312 L 100.746094 296.832031 C 100.484375 296.777344 100.242188 296.683594 100.015625 296.546875 C 99.785156 296.40625 99.589844 296.234375 99.421875 296.03125 C 99.253906 295.824219 99.125 295.597656 99.035156 295.34375 C 98.949219 295.09375 98.902344 294.835938 98.902344 294.570312 C 98.902344 294.304688 98.949219 294.046875 99.035156 293.796875 C 99.125 293.546875 99.253906 293.320312 99.421875 293.113281 C 99.589844 292.910156 99.785156 292.738281 100.015625 292.597656 C 100.242188 292.460938 100.484375 292.363281 100.746094 292.3125 L 124.484375 286.074219 C 124.933594 285.976562 125.320312 285.769531 125.644531 285.445312 C 125.96875 285.121094 126.179688 284.734375 126.273438 284.285156 L 132.503906 254.027344 C 132.558594 253.765625 132.65625 253.523438 132.792969 253.296875 C 132.929688 253.066406 133.101562 252.871094 133.308594 252.703125 C 133.515625 252.535156 133.742188 252.40625 133.992188 252.316406 C 134.242188 252.230469 134.5 252.183594 134.765625 252.183594 C 135.03125 252.183594 135.289062 252.230469 135.539062 252.316406 C 135.789062 252.40625 136.019531 252.535156 136.222656 252.703125 C 136.429688 252.871094 136.601562 253.066406 136.738281 253.296875 C 136.878906 253.523438 136.972656 253.765625 137.027344 254.027344 L 143.265625 284.253906 C 143.355469 284.707031 143.566406 285.101562 143.890625 285.433594 C 144.21875 285.761719 144.605469 285.976562 145.0625 286.074219 Z M 145.0625 286.074219 " fill-opacity="1" fill-rule="nonzero"/></g><path fill="#798b41" d="M 255.628906 180.664062 L 317.78125 197 C 324.210938 198.328125 324.210938 207.503906 317.78125 208.832031 L 255.628906 225.167969 C 255.050781 225.289062 254.503906 225.488281 253.984375 225.769531 C 253.464844 226.046875 252.996094 226.398438 252.582031 226.8125 C 252.164062 227.230469 251.816406 227.699219 251.535156 228.21875 C 251.253906 228.738281 251.054688 229.285156 250.9375 229.863281 L 234.597656 309.011719 C 233.273438 315.441406 224.097656 315.441406 222.773438 309.011719 L 206.429688 229.882812 C 206.308594 229.304688 206.109375 228.753906 205.832031 228.234375 C 205.550781 227.71875 205.203125 227.25 204.785156 226.832031 C 204.367188 226.414062 203.898438 226.066406 203.378906 225.785156 C 202.859375 225.507812 202.3125 225.308594 201.734375 225.1875 L 139.585938 208.851562 C 133.160156 207.519531 133.160156 198.347656 139.585938 197.015625 L 201.734375 180.664062 C 202.3125 180.542969 202.859375 180.34375 203.378906 180.0625 C 203.898438 179.785156 204.367188 179.433594 204.785156 179.019531 C 205.203125 178.601562 205.550781 178.132812 205.828125 177.613281 C 206.109375 177.09375 206.308594 176.546875 206.429688 175.96875 L 222.773438 96.839844 C 224.097656 90.414062 233.273438 90.414062 234.597656 96.839844 L 250.9375 175.96875 C 251.054688 176.546875 251.253906 177.09375 251.535156 177.613281 C 251.816406 178.132812 252.164062 178.601562 252.582031 179.019531 C 252.996094 179.433594 253.464844 179.785156 253.984375 180.0625 C 254.503906 180.34375 255.050781 180.542969 255.628906 180.664062 Z M 255.628906 180.664062 " fill-opacity="1" fill-rule="nonzero"/></svg>