<svg xmlns="http://www.w3.org/2000/svg" xmlns:xlink="http://www.w3.org/1999/xlink" width="500" zoomAndPan="magnify" viewBox="0 0 375 374.999991" height="500" preserveAspectRatio="xMidYMid meet" version="1.0"><defs><clipPath id="2d46df49c6"><path d="M 38 37.5 L 328 37.5 L 328 314 L 38 314 Z M 38 37.5 " clip-rule="nonzero"/></clipPath></defs><g clip-path="url(#2d46df49c6)"><path fill="#798b41" d="M 192.339844 43.28125 L 228.9375 117.433594 C 229.308594 118.191406 229.765625 118.894531 230.308594 119.539062 C 230.851562 120.1875 231.464844 120.757812 232.148438 121.253906 C 232.828125 121.753906 233.5625 122.160156 234.34375 122.480469 C 235.125 122.796875 235.933594 123.019531 236.769531 123.140625 L 318.597656 135.03125 C 319.5625 135.167969 320.484375 135.4375 321.371094 135.832031 C 322.257812 136.230469 323.070312 136.742188 323.8125 137.367188 C 324.554688 137.992188 325.199219 138.707031 325.742188 139.511719 C 326.285156 140.316406 326.707031 141.183594 327.007812 142.105469 C 327.308594 143.027344 327.476562 143.976562 327.511719 144.945312 C 327.546875 145.917969 327.449219 146.871094 327.21875 147.816406 C 326.984375 148.757812 326.628906 149.652344 326.144531 150.496094 C 325.664062 151.335938 325.074219 152.097656 324.378906 152.777344 L 265.148438 210.496094 C 264.546875 211.085938 264.023438 211.738281 263.578125 212.453125 C 263.132812 213.171875 262.78125 213.929688 262.519531 214.734375 C 262.257812 215.535156 262.097656 216.355469 262.039062 217.195312 C 261.976562 218.039062 262.019531 218.875 262.160156 219.707031 L 276.136719 301.207031 C 276.304688 302.164062 276.335938 303.125 276.230469 304.089844 C 276.125 305.054688 275.890625 305.988281 275.527344 306.890625 C 275.160156 307.789062 274.679688 308.621094 274.082031 309.386719 C 273.484375 310.152344 272.792969 310.820312 272.007812 311.390625 C 271.222656 311.964844 270.375 312.414062 269.460938 312.75 C 268.550781 313.082031 267.609375 313.285156 266.640625 313.355469 C 265.671875 313.425781 264.710938 313.363281 263.761719 313.164062 C 262.808594 312.964844 261.90625 312.640625 261.046875 312.1875 L 187.851562 273.6875 C 187.105469 273.296875 186.320312 273 185.503906 272.796875 C 184.683594 272.59375 183.855469 272.492188 183.011719 272.492188 C 182.167969 272.492188 181.339844 272.59375 180.519531 272.796875 C 179.703125 273 178.921875 273.296875 178.175781 273.6875 L 104.980469 312.171875 C 104.117188 312.625 103.214844 312.949219 102.261719 313.148438 C 101.3125 313.34375 100.351562 313.410156 99.382812 313.339844 C 98.414062 313.269531 97.476562 313.066406 96.5625 312.730469 C 95.652344 312.398438 94.800781 311.945312 94.015625 311.375 C 93.230469 310.804688 92.539062 310.132812 91.941406 309.371094 C 91.34375 308.605469 90.863281 307.773438 90.496094 306.871094 C 90.132812 305.972656 89.898438 305.039062 89.792969 304.074219 C 89.691406 303.109375 89.722656 302.144531 89.886719 301.1875 L 103.863281 219.6875 C 104.003906 218.855469 104.046875 218.019531 103.984375 217.179688 C 103.925781 216.339844 103.765625 215.515625 103.503906 214.714844 C 103.246094 213.914062 102.890625 213.152344 102.449219 212.4375 C 102.003906 211.722656 101.476562 211.070312 100.875 210.480469 L 41.65625 152.777344 C 40.960938 152.097656 40.371094 151.335938 39.890625 150.496094 C 39.40625 149.652344 39.050781 148.757812 38.820312 147.816406 C 38.585938 146.871094 38.488281 145.917969 38.523438 144.945312 C 38.558594 143.976562 38.726562 143.027344 39.027344 142.105469 C 39.328125 141.183594 39.75 140.316406 40.292969 139.511719 C 40.835938 138.707031 41.480469 137.992188 42.222656 137.367188 C 42.964844 136.742188 43.78125 136.230469 44.664062 135.832031 C 45.550781 135.4375 46.476562 135.167969 47.4375 135.03125 L 129.253906 123.140625 C 130.089844 123.019531 130.898438 122.800781 131.679688 122.480469 C 132.460938 122.164062 133.191406 121.757812 133.875 121.261719 C 134.554688 120.765625 135.167969 120.199219 135.710938 119.554688 C 136.257812 118.910156 136.714844 118.207031 137.089844 117.453125 L 173.683594 43.28125 C 174.113281 42.410156 174.652344 41.617188 175.304688 40.894531 C 175.957031 40.175781 176.695312 39.5625 177.519531 39.050781 C 178.34375 38.539062 179.222656 38.148438 180.15625 37.882812 C 181.089844 37.613281 182.042969 37.480469 183.011719 37.480469 C 183.984375 37.480469 184.933594 37.613281 185.867188 37.882812 C 186.800781 38.148438 187.679688 38.539062 188.503906 39.050781 C 189.328125 39.5625 190.066406 40.175781 190.71875 40.894531 C 191.371094 41.617188 191.910156 42.410156 192.339844 43.28125 Z M 192.339844 43.28125 " fill-opacity="1" fill-rule="nonzero"/></g></svg>