<svg xmlns="http://www.w3.org/2000/svg" xmlns:xlink="http://www.w3.org/1999/xlink" width="500" zoomAndPan="magnify" viewBox="0 0 375 374.999991" height="500" preserveAspectRatio="xMidYMid meet" version="1.0"><defs><clipPath id="45d1c50eb6"><path d="M 168 37.5 L 189 37.5 L 189 96 L 168 96 Z M 168 37.5 " clip-rule="nonzero"/></clipPath><clipPath id="329b91f12a"><path d="M 168.164062 279.464844 L 188.925781 279.464844 L 188.925781 337.488281 L 168.164062 337.488281 Z M 168.164062 279.464844 " clip-rule="nonzero"/></clipPath><clipPath id="077b5c85c6"><path d="M 28.542969 177 L 87 177 L 87 198 L 28.542969 198 Z M 28.542969 177 " clip-rule="nonzero"/></clipPath><clipPath id="5145f94d6c"><path d="M 270.507812 177.117188 L 328.539062 177.117188 L 328.539062 197.882812 L 270.507812 197.882812 Z M 270.507812 177.117188 " clip-rule="nonzero"/></clipPath></defs><g clip-path="url(#45d1c50eb6)"><path fill="#798b41" d="M 178.53125 95.402344 L 178.550781 95.402344 C 184.242188 95.402344 188.894531 90.753906 188.894531 85.070312 L 188.894531 47.855469 C 188.894531 42.167969 184.242188 37.515625 178.550781 37.515625 L 178.53125 37.515625 C 172.847656 37.515625 168.179688 42.167969 168.179688 47.855469 L 168.179688 85.070312 C 168.179688 90.753906 172.847656 95.402344 178.53125 95.402344 " fill-opacity="1" fill-rule="nonzero"/></g><path fill="#798b41" d="M 100.011719 72.199219 L 118.351562 103.957031 L 118.746094 104.609375 C 121.785156 109.027344 127.789062 110.46875 132.503906 107.753906 L 132.488281 107.742188 C 137.429688 104.894531 139.132812 98.535156 136.285156 93.605469 L 118.746094 63.257812 L 117.683594 61.378906 C 114.839844 56.460938 108.472656 54.738281 103.542969 57.605469 L 103.527344 57.605469 C 102.0625 58.457031 100.871094 59.609375 100.011719 60.945312 C 97.984375 64.117188 97.753906 68.285156 99.753906 71.738281 L 100.011719 72.199219 " fill-opacity="1" fill-rule="nonzero"/><path fill="#798b41" d="M 224.574219 107.753906 L 224.585938 107.753906 C 229.507812 110.601562 235.886719 108.894531 238.726562 103.957031 L 257.054688 72.214844 L 257.328125 71.734375 C 259.324219 68.285156 259.066406 64.125 257.054688 60.984375 C 256.203125 59.617188 255.035156 58.457031 253.546875 57.605469 L 253.53125 57.605469 C 248.609375 54.757812 242.234375 56.460938 239.390625 61.378906 L 220.796875 93.601562 C 217.949219 98.535156 219.644531 104.894531 224.574219 107.753906 " fill-opacity="1" fill-rule="nonzero"/><path fill="#798b41" d="M 52.421875 126.644531 L 84.644531 145.246094 C 89.582031 148.082031 95.941406 146.386719 98.796875 141.457031 L 98.777344 141.4375 C 99.402344 140.371094 99.800781 139.21875 100.011719 138.058594 C 100.214844 136.878906 100.214844 135.683594 100.011719 134.511719 C 99.5 131.59375 97.753906 128.910156 95 127.308594 L 62.777344 108.707031 C 57.859375 105.863281 51.488281 107.566406 48.640625 112.507812 C 45.792969 117.433594 47.515625 123.8125 52.421875 126.644531 " fill-opacity="1" fill-rule="nonzero"/><path fill="#798b41" d="M 178.535156 107.894531 C 154.621094 107.894531 133.179688 118.570312 118.746094 135.4375 C 107.875 148.144531 100.992188 164.363281 100.011719 182.167969 C 99.933594 183.617188 99.890625 185.078125 99.890625 186.539062 C 99.890625 188.015625 99.933594 189.476562 100.011719 190.921875 C 100.992188 208.710938 107.875 224.941406 118.746094 237.652344 C 133.179688 254.503906 154.621094 265.203125 178.535156 265.203125 C 220.445312 265.203125 254.710938 232.382812 257.054688 191.066406 C 257.140625 189.566406 257.195312 188.058594 257.195312 186.539062 C 257.195312 185.035156 257.140625 183.527344 257.054688 182.023438 C 254.710938 140.710938 220.445312 107.894531 178.535156 107.894531 " fill-opacity="1" fill-rule="nonzero"/><path fill="#798b41" d="M 257.054688 138.101562 C 257.261719 139.25 257.671875 140.390625 258.28125 141.457031 L 258.296875 141.457031 C 261.136719 146.402344 267.492188 148.082031 272.417969 145.246094 L 304.652344 126.644531 C 309.570312 123.796875 311.296875 117.433594 308.433594 112.507812 C 305.578125 107.566406 299.222656 105.863281 294.296875 108.707031 L 262.074219 127.308594 C 259.332031 128.890625 257.574219 131.574219 257.054688 134.484375 C 256.847656 135.667969 256.847656 136.898438 257.054688 138.101562 " fill-opacity="1" fill-rule="nonzero"/><path fill="#798b41" d="M 100.011719 236.898438 C 99.800781 235.742188 99.414062 234.621094 98.796875 233.53125 L 98.777344 233.53125 C 95.945312 228.609375 89.582031 226.898438 84.65625 229.746094 L 52.4375 248.347656 C 47.503906 251.195312 45.792969 257.558594 48.640625 262.488281 L 48.660156 262.5 C 51.5 267.410156 57.871094 269.132812 62.796875 266.289062 L 95.011719 247.6875 C 97.769531 246.078125 99.5 243.382812 100.011719 240.449219 C 100.214844 239.28125 100.230469 238.085938 100.011719 236.898438 " fill-opacity="1" fill-rule="nonzero"/><g clip-path="url(#329b91f12a)"><path fill="#798b41" d="M 178.550781 279.582031 L 178.535156 279.582031 C 172.847656 279.582031 168.179688 284.234375 168.179688 289.925781 L 168.179688 327.144531 C 168.199219 332.832031 172.847656 337.488281 178.535156 337.488281 L 178.550781 337.488281 C 184.242188 337.488281 188.894531 332.832031 188.894531 327.144531 L 188.894531 289.925781 C 188.894531 284.234375 184.242188 279.582031 178.550781 279.582031 " fill-opacity="1" fill-rule="nonzero"/></g><path fill="#798b41" d="M 257.054688 302.777344 L 238.71875 271.039062 C 235.886719 266.113281 229.503906 264.394531 224.574219 267.238281 L 224.5625 267.253906 C 219.640625 270.101562 217.949219 276.453125 220.796875 281.382812 L 239.390625 313.613281 C 242.234375 318.539062 248.609375 320.238281 253.53125 317.390625 C 255.011719 316.527344 256.203125 315.335938 257.054688 313.964844 C 259.066406 310.808594 259.304688 306.691406 257.328125 303.246094 L 257.054688 302.777344 " fill-opacity="1" fill-rule="nonzero"/><path fill="#798b41" d="M 304.652344 248.34375 L 272.417969 229.746094 C 267.496094 226.898438 261.128906 228.609375 258.28125 233.53125 L 258.28125 233.558594 C 257.671875 234.605469 257.277344 235.695312 257.054688 236.84375 C 256.84375 238.074219 256.84375 239.328125 257.054688 240.539062 C 257.585938 243.441406 259.332031 246.097656 262.074219 247.675781 L 294.296875 266.289062 C 299.222656 269.121094 305.59375 267.425781 308.433594 262.488281 C 311.28125 257.554688 309.570312 251.195312 304.652344 248.34375 " fill-opacity="1" fill-rule="nonzero"/><path fill="#798b41" d="M 132.503906 267.253906 L 132.503906 267.238281 C 127.792969 264.527344 121.769531 265.949219 118.746094 270.371094 C 118.609375 270.585938 118.492188 270.804688 118.359375 271.039062 L 100.011719 302.8125 L 99.757812 303.253906 C 97.769531 306.707031 98.003906 310.851562 100.011719 314.003906 C 100.875 315.355469 102.066406 316.539062 103.542969 317.390625 C 108.472656 320.238281 114.839844 318.539062 117.699219 313.613281 L 118.746094 311.761719 L 136.285156 281.386719 C 139.132812 276.453125 137.429688 270.101562 132.503906 267.253906 " fill-opacity="1" fill-rule="nonzero"/><g clip-path="url(#077b5c85c6)"><path fill="#798b41" d="M 86.449219 187.492188 C 86.449219 181.792969 81.800781 177.148438 76.105469 177.148438 L 38.90625 177.148438 C 33.222656 177.148438 28.539062 181.792969 28.558594 187.492188 L 28.558594 187.511719 C 28.558594 193.183594 33.222656 197.851562 38.90625 197.851562 L 76.105469 197.851562 C 81.800781 197.835938 86.449219 193.183594 86.449219 187.492188 " fill-opacity="1" fill-rule="nonzero"/></g><g clip-path="url(#5145f94d6c)"><path fill="#798b41" d="M 328.515625 187.492188 C 328.515625 181.792969 323.878906 177.148438 318.179688 177.148438 L 280.980469 177.148438 C 275.292969 177.148438 270.628906 181.8125 270.628906 187.492188 L 270.628906 187.511719 C 270.628906 193.203125 275.28125 197.851562 280.972656 197.851562 L 318.179688 197.851562 C 323.878906 197.851562 328.542969 193.183594 328.542969 187.492188 L 328.515625 187.492188 " fill-opacity="1" fill-rule="nonzero"/></g><path fill="#798b41" d="M 178.535156 247.453125 C 211.5625 247.453125 238.511719 220.519531 238.511719 187.492188 C 238.511719 154.457031 211.5625 127.519531 178.535156 127.519531 C 145.511719 127.519531 118.5625 154.457031 118.5625 187.492188 C 118.5625 220.519531 145.511719 247.453125 178.535156 247.453125 " fill-opacity="1" fill-rule="evenodd"/></svg>