<svg xmlns="http://www.w3.org/2000/svg" xmlns:xlink="http://www.w3.org/1999/xlink" width="500" zoomAndPan="magnify" viewBox="0 0 375 374.999991" height="500" preserveAspectRatio="xMidYMid meet" version="1.0"><defs><clipPath id="fc4eb28eb8"><path d="M 95.886719 46.136719 L 278.886719 46.136719 L 278.886719 328.886719 L 95.886719 328.886719 Z M 95.886719 46.136719 " clip-rule="nonzero"/></clipPath><clipPath id="ecf979bc29"><path d="M 172 300 L 205 300 L 205 328.886719 L 172 328.886719 Z M 172 300 " clip-rule="nonzero"/></clipPath></defs><g clip-path="url(#fc4eb28eb8)"><path fill="#798b41" d="M 189.402344 47.070312 C 189.480469 47.101562 189.554688 47.132812 189.628906 47.164062 C 191.332031 47.925781 192.394531 49.542969 193.324219 51.085938 C 193.363281 51.148438 193.402344 51.210938 193.441406 51.273438 C 195.800781 55.214844 196.878906 59.785156 198.074219 64.171875 C 198.636719 66.238281 199.207031 68.296875 199.890625 70.324219 C 199.929688 70.4375 199.964844 70.546875 200.003906 70.660156 C 200.769531 72.933594 201.734375 75.109375 202.753906 77.273438 C 203.109375 78.027344 203.457031 78.78125 203.800781 79.539062 C 205.160156 82.523438 206.515625 85.480469 208.222656 88.285156 C 208.519531 88.78125 208.808594 89.277344 209.09375 89.777344 C 209.136719 89.855469 209.183594 89.929688 209.226562 90.007812 C 209.425781 90.355469 209.621094 90.707031 209.820312 91.054688 C 210.003906 91.386719 210.191406 91.714844 210.378906 92.039062 C 210.410156 92.097656 210.441406 92.152344 210.472656 92.207031 C 210.851562 92.871094 211.238281 93.527344 211.65625 94.167969 C 212.691406 95.773438 213.570312 97.484375 214.414062 99.199219 C 214.914062 100.207031 215.464844 101.179688 216.03125 102.152344 C 216.082031 102.238281 216.128906 102.320312 216.179688 102.410156 C 217.296875 104.328125 218.488281 106.175781 219.769531 107.988281 C 219.824219 108.0625 219.875 108.132812 219.925781 108.210938 C 220.496094 109.011719 221.085938 109.800781 221.6875 110.582031 C 223.566406 113.035156 225.496094 115.738281 226.335938 118.75 C 226.367188 118.855469 226.398438 118.960938 226.429688 119.074219 C 226.699219 120.101562 226.769531 121.078125 226.246094 122.03125 C 225.214844 123.792969 223.367188 125.097656 221.410156 125.640625 C 219.195312 126.210938 216.847656 126.453125 214.574219 126.683594 C 214.914062 127.222656 215.253906 127.761719 215.628906 128.277344 C 215.664062 128.332031 215.703125 128.382812 215.742188 128.4375 C 216.179688 129.042969 216.621094 129.644531 217.066406 130.246094 C 217.285156 130.539062 217.503906 130.835938 217.71875 131.132812 C 218.242188 131.847656 218.769531 132.554688 219.316406 133.25 C 219.914062 134.015625 220.496094 134.796875 221.070312 135.582031 C 221.335938 135.945312 221.601562 136.308594 221.867188 136.667969 C 221.972656 136.8125 222.082031 136.957031 222.1875 137.101562 C 222.238281 137.171875 222.664062 137.75 222.824219 137.96875 C 222.878906 138.039062 222.929688 138.109375 222.984375 138.183594 C 223.089844 138.328125 223.199219 138.472656 223.304688 138.617188 C 223.570312 138.980469 223.839844 139.34375 224.109375 139.707031 C 224.664062 140.457031 225.210938 141.207031 225.746094 141.972656 C 226.222656 142.648438 226.707031 143.316406 227.191406 143.984375 C 227.339844 144.191406 227.484375 144.394531 227.632812 144.597656 C 228.191406 145.375 228.757812 146.148438 229.324219 146.917969 C 229.734375 147.472656 230.136719 148.03125 230.539062 148.589844 C 230.898438 149.085938 231.261719 149.582031 231.625 150.074219 C 232.289062 150.972656 232.941406 151.878906 233.59375 152.785156 C 235.164062 154.960938 236.777344 157.101562 238.414062 159.226562 C 239.632812 160.808594 240.824219 162.40625 241.929688 164.070312 C 241.980469 164.144531 242.027344 164.21875 242.078125 164.292969 C 243.5 166.449219 244.734375 168.949219 244.238281 171.609375 C 244.15625 171.875 244.054688 172.117188 243.9375 172.371094 C 243.898438 172.453125 243.859375 172.539062 243.820312 172.625 C 243.496094 173.269531 243.070312 173.773438 242.570312 174.285156 C 242.457031 174.402344 242.457031 174.402344 242.347656 174.519531 C 242.230469 174.628906 242.230469 174.628906 242.113281 174.742188 C 242.054688 174.796875 241.996094 174.855469 241.9375 174.910156 C 240.457031 176.304688 238.652344 177.34375 236.824219 178.207031 C 236.765625 178.234375 236.707031 178.261719 236.648438 178.289062 C 234.886719 179.117188 232.671875 180.03125 230.714844 180.03125 C 231.542969 181.652344 232.378906 183.269531 233.265625 184.863281 C 233.308594 184.941406 233.351562 185.019531 233.398438 185.097656 C 234.847656 187.699219 236.503906 190.136719 238.28125 192.523438 C 238.320312 192.574219 238.359375 192.628906 238.398438 192.679688 C 238.566406 192.902344 238.730469 193.121094 238.894531 193.34375 C 239.050781 193.550781 239.207031 193.757812 239.363281 193.964844 C 239.855469 194.625 240.351562 195.277344 240.851562 195.925781 C 241.636719 196.945312 242.414062 197.96875 243.183594 198.996094 C 243.785156 199.800781 244.398438 200.59375 245.011719 201.390625 C 245.351562 201.828125 245.683594 202.269531 246.019531 202.707031 C 246.894531 203.855469 247.78125 204.996094 248.691406 206.113281 C 249.015625 206.511719 249.332031 206.910156 249.648438 207.3125 C 250.363281 208.226562 251.117188 209.101562 251.90625 209.957031 C 252.191406 210.265625 252.476562 210.582031 252.757812 210.898438 C 252.902344 211.058594 253.046875 211.214844 253.1875 211.371094 C 253.636719 211.859375 254.066406 212.355469 254.484375 212.871094 C 254.671875 213.101562 254.867188 213.332031 255.0625 213.558594 C 255.582031 214.171875 256.085938 214.796875 256.578125 215.433594 C 257.769531 216.964844 258.984375 218.464844 260.261719 219.921875 C 262.300781 222.257812 263.925781 224.820312 263.746094 228.027344 C 263.59375 229.816406 262.789062 231.128906 261.445312 232.28125 C 257.199219 235.742188 251.144531 236.601562 245.898438 237.34375 C 245.578125 237.390625 245.253906 237.433594 244.933594 237.480469 C 244.855469 237.492188 244.777344 237.503906 244.695312 237.515625 C 243.375 237.703125 242.078125 237.949219 240.777344 238.257812 C 240.5625 238.300781 240.5625 238.300781 240.199219 238.300781 C 240.242188 238.488281 240.285156 238.675781 240.335938 238.859375 C 240.359375 238.964844 240.386719 239.066406 240.410156 239.175781 C 240.746094 240.207031 241.480469 241.164062 242.078125 242.050781 C 242.152344 242.160156 242.222656 242.265625 242.292969 242.375 C 243.296875 243.867188 244.339844 245.328125 245.394531 246.78125 C 247.433594 249.585938 249.367188 252.460938 251.289062 255.347656 C 252.25 256.792969 253.230469 258.226562 254.242188 259.640625 C 254.289062 259.707031 254.335938 259.777344 254.386719 259.84375 C 255.046875 260.769531 255.71875 261.671875 256.429688 262.558594 C 256.519531 262.671875 256.613281 262.785156 256.703125 262.898438 C 256.75 262.957031 256.796875 263.015625 256.84375 263.074219 C 256.890625 263.132812 256.933594 263.1875 256.984375 263.246094 C 257.027344 263.304688 257.074219 263.363281 257.121094 263.421875 C 257.445312 263.824219 257.761719 264.234375 258.078125 264.644531 C 258.347656 265 258.625 265.351562 258.898438 265.707031 C 259.363281 266.300781 259.820312 266.894531 260.269531 267.5 C 260.671875 268.039062 261.082031 268.5625 261.503906 269.085938 C 261.792969 269.441406 262.074219 269.800781 262.351562 270.167969 C 262.742188 270.679688 263.144531 271.179688 263.550781 271.675781 C 263.878906 272.074219 264.195312 272.472656 264.511719 272.878906 C 264.878906 273.351562 265.253906 273.808594 265.640625 274.261719 C 265.898438 274.5625 266.152344 274.867188 266.398438 275.175781 C 266.882812 275.773438 267.414062 276.328125 267.941406 276.886719 C 268.320312 277.289062 268.695312 277.695312 269.066406 278.101562 C 269.195312 278.242188 269.320312 278.378906 269.449219 278.515625 C 270.035156 279.148438 270.597656 279.796875 271.15625 280.453125 C 271.292969 280.613281 271.433594 280.773438 271.570312 280.933594 C 272.203125 281.660156 272.808594 282.402344 273.390625 283.167969 C 273.445312 283.238281 273.5 283.308594 273.554688 283.378906 C 274.296875 284.351562 275.015625 285.328125 275.671875 286.359375 C 275.710938 286.421875 275.75 286.484375 275.792969 286.546875 C 277.492188 289.1875 278.390625 291.933594 278.800781 295.035156 C 278.816406 295.152344 278.832031 295.269531 278.847656 295.390625 C 279.113281 297.523438 278.859375 299.53125 277.558594 301.292969 C 277.078125 301.910156 276.558594 302.472656 275.945312 302.957031 C 275.851562 303.03125 275.757812 303.109375 275.664062 303.183594 C 272.988281 305.347656 269.816406 306.859375 266.703125 308.277344 C 266.425781 308.402344 266.148438 308.53125 265.871094 308.660156 C 259.117188 311.796875 252.292969 313.496094 237.3125 314.613281 C 237.007812 314.628906 236.703125 314.644531 236.394531 314.660156 C 229.171875 315.019531 222.339844 313.558594 215.757812 310.523438 C 215.628906 310.46875 215.5 310.40625 215.375 310.347656 C 214.386719 309.898438 213.402344 309.441406 212.421875 308.984375 C 212.214844 308.890625 212.007812 308.792969 211.800781 308.699219 C 210.058594 307.890625 208.339844 307.050781 206.625 306.1875 C 205.5625 305.652344 204.496094 305.128906 203.417969 304.621094 C 203.148438 304.492188 202.878906 304.363281 202.609375 304.234375 C 201.414062 303.652344 200.207031 303.101562 198.980469 302.589844 C 198.988281 302.65625 199 302.726562 199.011719 302.792969 C 199.125 303.445312 199.222656 304.097656 199.316406 304.753906 C 199.726562 307.625 200.183594 310.472656 200.847656 313.296875 C 200.871094 313.390625 200.894531 313.488281 200.917969 313.589844 C 201.261719 314.992188 201.738281 316.363281 202.21875 317.726562 C 202.78125 319.324219 203.300781 320.921875 203.714844 322.566406 C 203.734375 322.644531 203.753906 322.71875 203.773438 322.796875 C 204.324219 324.960938 204.324219 324.960938 203.851562 325.761719 C 202.578125 327.445312 199.921875 327.734375 197.976562 328.035156 C 197.542969 328.085938 197.109375 328.128906 196.675781 328.167969 C 196.550781 328.179688 196.429688 328.191406 196.308594 328.203125 C 195.03125 328.320312 193.753906 328.425781 192.472656 328.523438 C 192.148438 328.546875 191.828125 328.574219 191.503906 328.597656 C 191.246094 328.621094 190.984375 328.640625 190.726562 328.660156 C 190.554688 328.671875 190.378906 328.6875 190.203125 328.703125 C 188.539062 328.824219 186.890625 328.769531 185.230469 328.636719 C 185.054688 328.625 184.882812 328.609375 184.707031 328.597656 C 184.347656 328.570312 183.984375 328.539062 183.625 328.511719 C 183.261719 328.480469 182.894531 328.453125 182.53125 328.425781 C 174.226562 327.796875 174.226562 327.796875 172.585938 325.976562 C 172.207031 325.527344 172.128906 325.082031 172.140625 324.511719 C 172.199219 323.855469 172.371094 323.222656 172.53125 322.585938 C 172.550781 322.507812 172.570312 322.429688 172.59375 322.351562 C 173.027344 320.617188 173.605469 318.933594 174.199219 317.25 C 174.679688 315.882812 175.117188 314.515625 175.453125 313.105469 C 175.464844 313.042969 175.480469 312.980469 175.496094 312.914062 C 176.140625 310.214844 176.542969 307.484375 176.945312 304.742188 C 176.964844 304.601562 176.964844 304.601562 176.984375 304.457031 C 177.140625 303.433594 177.140625 303.433594 177.191406 302.402344 C 177.1875 302.226562 177.1875 302.226562 177.183594 302.042969 C 174.996094 302.980469 172.820312 303.941406 170.691406 305.015625 C 170.085938 305.320312 169.476562 305.617188 168.863281 305.910156 C 168.082031 306.277344 167.3125 306.660156 166.542969 307.050781 C 165.492188 307.578125 164.429688 308.082031 163.359375 308.570312 C 162.878906 308.792969 162.402344 309.015625 161.925781 309.242188 C 155.089844 312.492188 147.8125 315.074219 140.15625 314.730469 C 139.863281 314.71875 139.570312 314.707031 139.277344 314.695312 C 130.371094 314.308594 121.53125 313.761719 108.515625 308.429688 C 108.414062 308.378906 108.414062 308.378906 108.304688 308.332031 C 101.238281 305.050781 101.238281 305.050781 98.6875 302.683594 C 98.484375 302.496094 98.484375 302.496094 98.257812 302.324219 C 96.917969 301.21875 96.195312 299.503906 95.960938 297.832031 C 95.886719 296.886719 95.960938 295.972656 96.085938 295.035156 C 96.09375 294.972656 96.101562 294.910156 96.109375 294.847656 C 96.257812 293.734375 96.457031 292.640625 96.753906 291.558594 C 96.769531 291.488281 96.789062 291.421875 96.808594 291.351562 C 97.402344 289.230469 98.515625 287.335938 99.761719 285.539062 C 99.804688 285.472656 99.851562 285.410156 99.898438 285.34375 C 101.046875 283.679688 102.335938 282.113281 103.648438 280.578125 C 103.777344 280.429688 103.902344 280.28125 104.027344 280.128906 C 104.660156 279.382812 105.320312 278.667969 105.992188 277.960938 C 106.316406 277.617188 106.632812 277.269531 106.949219 276.917969 C 107.101562 276.746094 107.253906 276.578125 107.414062 276.410156 C 107.914062 275.875 108.398438 275.332031 108.855469 274.761719 C 109.085938 274.480469 109.320312 274.203125 109.554688 273.929688 C 109.941406 273.472656 110.3125 273.011719 110.679688 272.539062 C 111 272.128906 111.328125 271.726562 111.65625 271.324219 C 112.101562 270.78125 112.527344 270.226562 112.945312 269.664062 C 113.246094 269.257812 113.558594 268.859375 113.878906 268.464844 C 114.308594 267.933594 114.71875 267.390625 115.128906 266.84375 C 115.582031 266.234375 116.042969 265.632812 116.523438 265.042969 C 116.847656 264.640625 117.160156 264.234375 117.472656 263.824219 C 117.714844 263.511719 117.957031 263.203125 118.207031 262.898438 C 118.839844 262.113281 119.441406 261.308594 120.035156 260.492188 C 120.175781 260.296875 120.320312 260.101562 120.464844 259.910156 C 121.230469 258.871094 121.941406 257.796875 122.65625 256.71875 C 123.09375 256.054688 123.539062 255.398438 123.992188 254.742188 C 124.347656 254.230469 124.691406 253.707031 125.039062 253.1875 C 126.230469 251.390625 127.453125 249.621094 128.722656 247.875 C 128.957031 247.550781 129.1875 247.226562 129.417969 246.902344 C 129.625 246.609375 129.835938 246.316406 130.046875 246.023438 C 130.699219 245.132812 131.335938 244.230469 131.953125 243.316406 C 132.003906 243.242188 132.054688 243.167969 132.105469 243.09375 C 132.679688 242.242188 133.25 241.382812 133.792969 240.507812 C 133.835938 240.441406 133.875 240.378906 133.917969 240.3125 C 134.242188 239.777344 134.472656 239.230469 134.613281 238.621094 C 134.640625 238.515625 134.664062 238.410156 134.6875 238.300781 C 134.59375 238.292969 134.5 238.28125 134.402344 238.269531 C 133.832031 238.199219 133.277344 238.074219 132.71875 237.957031 C 131.425781 237.691406 130.125 237.488281 128.816406 237.308594 C 123.34375 236.542969 116.980469 235.605469 112.800781 231.644531 C 112.746094 231.597656 112.6875 231.550781 112.628906 231.503906 C 111.679688 230.679688 111.238281 229.253906 111.144531 228.046875 C 110.953125 224.78125 112.585938 222.257812 114.671875 219.894531 C 114.804688 219.746094 114.941406 219.601562 115.074219 219.453125 C 115.382812 219.109375 115.671875 218.75 115.960938 218.390625 C 116.101562 218.21875 116.246094 218.042969 116.390625 217.871094 C 116.953125 217.191406 117.503906 216.507812 118.039062 215.804688 C 118.457031 215.265625 118.890625 214.738281 119.324219 214.210938 C 119.441406 214.066406 119.5625 213.917969 119.679688 213.773438 C 120.53125 212.722656 121.421875 211.707031 122.34375 210.714844 C 122.597656 210.441406 122.847656 210.164062 123.09375 209.882812 C 123.222656 209.738281 123.355469 209.597656 123.488281 209.453125 C 123.917969 208.984375 124.320312 208.496094 124.707031 207.996094 C 125.046875 207.558594 125.398438 207.128906 125.75 206.703125 C 126.265625 206.085938 126.765625 205.457031 127.257812 204.824219 C 127.410156 204.632812 127.558594 204.4375 127.710938 204.246094 C 128.246094 203.558594 128.777344 202.871094 129.296875 202.175781 C 129.542969 201.847656 129.789062 201.527344 130.039062 201.203125 C 130.558594 200.53125 131.074219 199.855469 131.589844 199.179688 C 131.648438 199.101562 131.707031 199.023438 131.769531 198.941406 C 132.398438 198.121094 133.023438 197.296875 133.644531 196.46875 C 133.953125 196.054688 134.265625 195.644531 134.582031 195.234375 C 135.199219 194.425781 135.8125 193.613281 136.421875 192.796875 C 136.472656 192.730469 136.519531 192.664062 136.570312 192.59375 C 139.113281 189.179688 141.265625 185.601562 143.214844 181.820312 C 143.527344 181.21875 143.847656 180.621094 144.171875 180.03125 C 144 180.015625 144 180.015625 143.828125 180 C 139.835938 179.550781 135.980469 177.484375 132.957031 174.921875 C 132.875 174.859375 132.875 174.859375 132.796875 174.796875 C 131.71875 173.945312 130.875 172.617188 130.585938 171.273438 C 130.492188 170.128906 130.570312 169.078125 130.949219 167.992188 C 130.980469 167.90625 130.980469 167.90625 131.007812 167.816406 C 131.441406 166.527344 132.054688 165.363281 132.832031 164.25 C 132.984375 164.03125 133.136719 163.808594 133.289062 163.585938 C 134.007812 162.546875 134.738281 161.519531 135.507812 160.515625 C 135.609375 160.382812 135.707031 160.253906 135.808594 160.121094 C 136.25 159.546875 136.691406 158.96875 137.132812 158.394531 C 137.292969 158.1875 137.449219 157.984375 137.605469 157.777344 C 137.660156 157.710938 137.714844 157.640625 137.769531 157.566406 C 138.566406 156.53125 139.347656 155.488281 140.109375 154.421875 C 140.351562 154.082031 140.597656 153.742188 140.84375 153.402344 C 141.140625 152.992188 141.433594 152.582031 141.730469 152.175781 C 142.5 151.105469 143.277344 150.046875 144.058594 148.988281 C 144.683594 148.144531 145.300781 147.300781 145.914062 146.449219 C 146.273438 145.953125 146.640625 145.457031 147.003906 144.960938 C 147.453125 144.355469 147.890625 143.746094 148.324219 143.128906 C 148.800781 142.453125 149.285156 141.785156 149.769531 141.113281 C 149.917969 140.910156 150.0625 140.707031 150.210938 140.5 C 150.875 139.578125 151.546875 138.664062 152.21875 137.75 C 152.378906 137.535156 152.535156 137.320312 152.691406 137.105469 C 153.4375 136.09375 154.195312 135.089844 154.960938 134.089844 C 155.550781 133.316406 156.128906 132.53125 156.703125 131.75 C 157.042969 131.285156 157.390625 130.824219 157.734375 130.367188 C 158.222656 129.71875 158.707031 129.070312 159.171875 128.410156 C 159.214844 128.351562 159.257812 128.292969 159.300781 128.230469 C 159.65625 127.726562 159.984375 127.207031 160.3125 126.683594 C 160.21875 126.671875 160.121094 126.660156 160.019531 126.648438 C 151.5 125.636719 151.5 125.636719 149.097656 122.761719 C 148.421875 121.785156 148.109375 120.914062 148.3125 119.722656 C 149.054688 116.136719 151.296875 113.085938 153.488281 110.234375 C 154.003906 109.566406 154.496094 108.882812 154.976562 108.1875 C 155.125 107.972656 155.277344 107.761719 155.429688 107.546875 C 156.148438 106.53125 156.835938 105.496094 157.488281 104.433594 C 157.53125 104.359375 157.574219 104.285156 157.621094 104.210938 C 158.726562 102.40625 159.746094 100.566406 160.714844 98.683594 C 161.597656 96.96875 162.515625 95.289062 163.53125 93.648438 C 164.1875 92.582031 164.816406 91.5 165.417969 90.402344 C 165.765625 89.773438 166.132812 89.15625 166.503906 88.535156 C 168.351562 85.429688 169.890625 82.226562 171.378906 78.9375 C 171.65625 78.324219 171.933594 77.714844 172.222656 77.105469 C 174.160156 73.03125 175.535156 68.835938 176.726562 64.488281 C 179.902344 52.90625 179.902344 52.90625 183.019531 48.988281 C 183.082031 48.90625 183.148438 48.828125 183.210938 48.746094 C 184.6875 47 187.21875 46.167969 189.402344 47.070312 Z M 189.402344 47.070312 " fill-opacity="1" fill-rule="nonzero"/></g><g clip-path="url(#ecf979bc29)"><path fill="#798b41" d="M 192.964844 300.273438 C 193.144531 300.3125 193.324219 300.347656 193.503906 300.382812 C 195.070312 300.699219 196.554688 301.339844 198.011719 301.976562 C 198.09375 302.011719 198.179688 302.050781 198.269531 302.085938 C 198.386719 302.140625 198.386719 302.140625 198.507812 302.195312 C 198.578125 302.226562 198.644531 302.253906 198.71875 302.289062 C 199.027344 302.507812 199.058594 302.804688 199.121094 303.164062 C 199.136719 303.277344 199.152344 303.394531 199.164062 303.511719 C 199.183594 303.640625 199.199219 303.773438 199.214844 303.90625 C 199.222656 303.976562 199.234375 304.046875 199.242188 304.117188 C 199.789062 308.480469 200.507812 312.820312 201.960938 316.980469 C 202.609375 318.832031 203.242188 320.679688 203.71875 322.585938 C 203.738281 322.660156 203.757812 322.738281 203.777344 322.816406 C 204.324219 324.960938 204.324219 324.960938 203.851562 325.761719 C 202.578125 327.445312 199.921875 327.734375 197.976562 328.035156 C 197.542969 328.085938 197.109375 328.128906 196.675781 328.167969 C 196.550781 328.179688 196.429688 328.191406 196.308594 328.203125 C 195.03125 328.324219 193.753906 328.425781 192.472656 328.523438 C 192.148438 328.546875 191.828125 328.574219 191.503906 328.601562 C 191.246094 328.621094 190.984375 328.640625 190.726562 328.660156 C 190.554688 328.671875 190.378906 328.6875 190.203125 328.703125 C 188.539062 328.824219 186.890625 328.769531 185.230469 328.636719 C 185.054688 328.625 184.882812 328.609375 184.707031 328.597656 C 184.347656 328.570312 183.984375 328.539062 183.625 328.511719 C 183.261719 328.480469 182.894531 328.453125 182.53125 328.425781 C 174.226562 327.796875 174.226562 327.796875 172.585938 325.976562 C 172.207031 325.527344 172.128906 325.082031 172.140625 324.511719 C 172.199219 323.855469 172.371094 323.222656 172.53125 322.585938 C 172.550781 322.507812 172.570312 322.429688 172.59375 322.351562 C 173.027344 320.617188 173.605469 318.933594 174.199219 317.25 C 174.679688 315.882812 175.117188 314.515625 175.453125 313.109375 C 175.464844 313.042969 175.480469 312.980469 175.496094 312.914062 C 176.035156 310.652344 176.410156 308.371094 176.75 306.074219 C 176.765625 305.96875 176.78125 305.863281 176.796875 305.753906 C 176.960938 304.660156 177.117188 303.566406 177.21875 302.464844 C 177.265625 301.972656 177.265625 301.972656 177.367188 301.769531 C 177.742188 301.582031 178.136719 301.433594 178.527344 301.277344 C 178.691406 301.207031 178.691406 301.207031 178.851562 301.140625 C 179.929688 300.703125 181.023438 300.417969 182.1875 300.371094 C 182.28125 300.367188 182.28125 300.367188 182.371094 300.363281 C 182.570312 300.351562 182.769531 300.34375 182.964844 300.335938 C 183.105469 300.332031 183.246094 300.328125 183.382812 300.320312 C 183.75 300.304688 184.117188 300.289062 184.484375 300.277344 C 185.066406 300.253906 185.652344 300.226562 186.234375 300.203125 C 186.4375 300.195312 186.640625 300.1875 186.839844 300.179688 C 187.539062 300.152344 188.238281 300.113281 188.9375 300.058594 C 190.285156 299.964844 191.644531 299.964844 192.964844 300.273438 Z M 192.964844 300.273438 " fill-opacity="1" fill-rule="nonzero"/></g></svg>