<svg xmlns="http://www.w3.org/2000/svg" xmlns:xlink="http://www.w3.org/1999/xlink" width="500" zoomAndPan="magnify" viewBox="0 0 375 374.999991" height="500" preserveAspectRatio="xMidYMid meet" version="1.0"><defs><clipPath id="74f0e9b25e"><path d="M 85.3125 37.5 L 290 37.5 L 290 337.5 L 85.3125 337.5 Z M 85.3125 37.5 " clip-rule="nonzero"/></clipPath></defs><g clip-path="url(#74f0e9b25e)"><path fill="#798b41" d="M 289.644531 138.160156 C 289.644531 124.964844 283.410156 113.234375 273.746094 105.726562 C 273.753906 105.496094 273.765625 105.265625 273.765625 105.039062 C 273.765625 83.390625 257.015625 65.664062 235.773438 64.09375 C 228.472656 48.382812 212.570312 37.5 194.121094 37.5 C 175.269531 37.5 159.066406 48.863281 152.007812 65.121094 C 148.894531 64.367188 145.648438 63.957031 142.3125 63.957031 C 119.632812 63.957031 101.234375 82.34375 101.234375 105.03125 C 101.234375 105.257812 101.253906 105.492188 101.253906 105.71875 C 91.578125 113.242188 85.355469 124.972656 85.355469 138.160156 C 85.355469 150.0625 90.425781 160.777344 98.519531 168.277344 C 97.054688 172.496094 96.242188 177.035156 96.242188 181.757812 C 96.242188 204.4375 114.628906 222.835938 137.320312 222.835938 C 144.046875 222.835938 150.386719 221.203125 155.988281 218.34375 C 160.125 224.492188 165.699219 229.601562 172.25 233.15625 C 172.25 233.234375 172.257812 233.308594 172.257812 233.382812 C 172.257812 233.382812 172.261719 233.390625 172.261719 233.390625 C 172.429688 237.429688 172.601562 240.839844 172.601562 241.742188 C 172.527344 267.683594 171.578125 293.578125 167.730469 319.269531 C 166.992188 324.195312 164.457031 328.054688 163.320312 332.558594 C 162.4375 336.050781 163.082031 336.046875 167.496094 336.402344 C 179.636719 337.363281 192.972656 337.5 205.050781 335.8125 C 206.691406 335.585938 207.082031 334.421875 206.875 332.890625 C 206.492188 330.132812 204.140625 326.183594 203.625 324.425781 C 197.929688 305.160156 197.757812 284.78125 197.972656 264.859375 C 197.996094 262.941406 198.335938 250.355469 198.445312 238.5 C 198.445312 238.5 198.441406 238.5 198.441406 238.5 C 210.917969 237.328125 221.945312 231.167969 229.503906 222.027344 C 232.144531 222.558594 234.886719 222.847656 237.679688 222.847656 C 260.359375 222.847656 278.757812 204.460938 278.757812 181.769531 C 278.757812 177.046875 277.953125 172.515625 276.480469 168.289062 C 284.574219 160.785156 289.644531 150.0625 289.644531 138.160156 Z M 289.644531 138.160156 " fill-opacity="1" fill-rule="nonzero"/></g></svg>